# xmcd
#
# Track frame offsets: 
#        150
#        16217
#        34383
#        54509
#        75480
#        93519
#        109531
#        131385
#        141159
#        163926
#        180665
#
# Disc length: 2670 seconds
#
# Revision: 0
# Processed by: cddbd v1.5.2PL0 Copyright (c) Steve Scherf et al.
# Submitted via: ExactAudioCopy v1.3
#
DISCID=890a6c0b
DTITLE=Bluestown Kings - Message To The People
DYEAR=2014
DGENRE=Blues
TTITLE0=Love in vain
TTITLE1=Got you on my mind
TTITLE2=Poor black Mattie
TTITLE3=Breakfast in Memphis
TTITLE4=The blues never die
TTITLE5=Need my baby
TTITLE6=Be my woman
TTITLE7=Clickety clack
TTITLE8=Last night
TTITLE9=Catfish blues
TTITLE10=Move on
EXTD=
EXTT0=
EXTT1=
EXTT2=
EXTT3=
EXTT4=
EXTT5=
EXTT6=
EXTT7=
EXTT8=
EXTT9=
EXTT10=
PLAYORDER=
